<mxfile host="65bd71144e">
    <diagram id="MuZAtRpMIBstmGgHcjIb" name="Page-1">
        <mxGraphModel dx="990" dy="614" grid="1" gridSize="10" guides="1" tooltips="1" connect="1" arrows="1" fold="1" page="1" pageScale="1" pageWidth="850" pageHeight="1100" math="0" shadow="0">
            <root>
                <mxCell id="0"/>
                <mxCell id="1" parent="0"/>
                <mxCell id="8" value="&lt;span&gt;Sơ đồ&amp;nbsp;&lt;/span&gt;activity của hệ thống mượn xe đi công tác (mở rộng 1) được ưu tiên (fleet_business_trip_priority)&amp;nbsp;" style="text;html=1;align=center;verticalAlign=middle;resizable=0;points=[];autosize=1;strokeColor=none;fillColor=none;fontStyle=1" parent="1" vertex="1">
                    <mxGeometry x="40" y="40" width="620" height="20" as="geometry"/>
                </mxCell>
                <mxCell id="24" style="edgeStyle=none;html=1;" parent="1" source="11" target="22" edge="1">
                    <mxGeometry relative="1" as="geometry"/>
                </mxCell>
                <mxCell id="11" value="Đăng ký mượn xe đi công tác" style="whiteSpace=wrap;html=1;rounded=0;" parent="1" vertex="1">
                    <mxGeometry x="170" y="230" width="120" height="60" as="geometry"/>
                </mxCell>
                <mxCell id="27" value="" style="edgeStyle=none;html=1;" parent="1" source="22" edge="1">
                    <mxGeometry relative="1" as="geometry">
                        <Array as="points">
                            <mxPoint x="140" y="370"/>
                        </Array>
                        <mxPoint x="140" y="390" as="targetPoint"/>
                    </mxGeometry>
                </mxCell>
                <mxCell id="29" style="edgeStyle=none;html=1;entryX=0.5;entryY=0;entryDx=0;entryDy=0;" parent="1" source="22" target="28" edge="1">
                    <mxGeometry relative="1" as="geometry"/>
                </mxCell>
                <mxCell id="31" style="edgeStyle=none;html=1;entryX=0.076;entryY=0.021;entryDx=0;entryDy=0;fontSize=11;entryPerimeter=0;" parent="1" source="22" target="30" edge="1">
                    <mxGeometry relative="1" as="geometry">
                        <Array as="points">
                            <mxPoint x="320" y="370"/>
                        </Array>
                    </mxGeometry>
                </mxCell>
                <mxCell id="22" value="" style="html=1;points=[];perimeter=orthogonalPerimeter;fillColor=#000000;strokeColor=none;rounded=1;rotation=90;" parent="1" vertex="1">
                    <mxGeometry x="227.5" y="260" width="5" height="180" as="geometry"/>
                </mxCell>
                <mxCell id="26" value="Thêm địa điểm đón, đến và thời gian đón, đến" style="whiteSpace=wrap;html=1;rounded=0;fontSize=11;" parent="1" vertex="1">
                    <mxGeometry x="20" y="390" width="130" height="60" as="geometry"/>
                </mxCell>
                <mxCell id="35" style="edgeStyle=none;html=1;fontSize=11;endArrow=classic;endFill=1;" parent="1" source="28" target="85" edge="1">
                    <mxGeometry relative="1" as="geometry">
                        <mxPoint x="230" y="470" as="targetPoint"/>
                    </mxGeometry>
                </mxCell>
                <mxCell id="28" value="Thêm 1 hoặc nhiều nhân viên tham gia" style="whiteSpace=wrap;html=1;rounded=0;fontSize=11;" parent="1" vertex="1">
                    <mxGeometry x="170" y="390" width="120" height="60" as="geometry"/>
                </mxCell>
                <mxCell id="30" value="Chọn tự lái hoặc tài xế, chọn xe" style="whiteSpace=wrap;html=1;rounded=0;fontSize=11;" parent="1" vertex="1">
                    <mxGeometry x="310" y="390" width="130" height="60" as="geometry"/>
                </mxCell>
                <mxCell id="33" value="" style="endArrow=none;html=1;fontSize=11;entryX=0.943;entryY=1.006;entryDx=0;entryDy=0;entryPerimeter=0;startArrow=classic;startFill=1;" parent="1" target="26" edge="1">
                    <mxGeometry width="50" height="50" relative="1" as="geometry">
                        <mxPoint x="143" y="490" as="sourcePoint"/>
                        <mxPoint x="150" y="500" as="targetPoint"/>
                        <Array as="points">
                            <mxPoint x="143" y="470"/>
                        </Array>
                    </mxGeometry>
                </mxCell>
                <mxCell id="34" value="" style="endArrow=none;html=1;fontSize=11;entryX=0.071;entryY=1.026;entryDx=0;entryDy=0;entryPerimeter=0;exitX=0.7;exitY=0.003;exitDx=0;exitDy=0;exitPerimeter=0;startArrow=classic;startFill=1;" parent="1" source="85" target="30" edge="1">
                    <mxGeometry width="50" height="50" relative="1" as="geometry">
                        <mxPoint x="270" y="470" as="sourcePoint"/>
                        <mxPoint x="310.29999999999995" y="470" as="targetPoint"/>
                        <Array as="points">
                            <mxPoint x="319" y="470"/>
                        </Array>
                    </mxGeometry>
                </mxCell>
                <mxCell id="36" value="" style="endArrow=none;html=1;fontSize=11;endFill=0;startArrow=classic;startFill=1;" parent="1" edge="1">
                    <mxGeometry width="50" height="50" relative="1" as="geometry">
                        <mxPoint x="230" y="530" as="sourcePoint"/>
                        <mxPoint x="230" y="490" as="targetPoint"/>
                    </mxGeometry>
                </mxCell>
                <mxCell id="49" style="edgeStyle=none;html=1;endArrow=classic;endFill=1;" parent="1" source="37" edge="1">
                    <mxGeometry relative="1" as="geometry">
                        <mxPoint x="460" y="560" as="targetPoint"/>
                    </mxGeometry>
                </mxCell>
                <mxCell id="37" value="Tạo thành công record công tác trên database (chưa duyệt)" style="whiteSpace=wrap;html=1;rounded=0;fontSize=11;" parent="1" vertex="1">
                    <mxGeometry x="165" y="530" width="130" height="60" as="geometry"/>
                </mxCell>
                <mxCell id="40" value="Văn Phòng" style="rounded=1;whiteSpace=wrap;html=1;strokeWidth=2;dashed=1;" parent="1" vertex="1">
                    <mxGeometry x="180" y="80" width="100" height="40" as="geometry"/>
                </mxCell>
                <mxCell id="41" value="Đội xe" style="rounded=1;whiteSpace=wrap;html=1;strokeWidth=2;dashed=1;" parent="1" vertex="1">
                    <mxGeometry x="725" y="80" width="100" height="40" as="geometry"/>
                </mxCell>
                <mxCell id="42" value="" style="endArrow=none;html=1;" parent="1" edge="1">
                    <mxGeometry width="50" height="50" relative="1" as="geometry">
                        <mxPoint x="660" y="910" as="sourcePoint"/>
                        <mxPoint x="660" y="80" as="targetPoint"/>
                    </mxGeometry>
                </mxCell>
                <mxCell id="63" style="edgeStyle=none;html=1;endArrow=none;endFill=0;" parent="1" source="50" edge="1">
                    <mxGeometry relative="1" as="geometry">
                        <mxPoint x="375" y="560" as="targetPoint"/>
                    </mxGeometry>
                </mxCell>
                <mxCell id="50" value="Chỉnh sửa lại record công tác và yêu cầu duyệt lại" style="whiteSpace=wrap;html=1;rounded=0;fontSize=11;" parent="1" vertex="1">
                    <mxGeometry x="310" y="620" width="130" height="60" as="geometry"/>
                </mxCell>
                <mxCell id="67" value="Hủy vĩnh viễn chuyến công tác" style="whiteSpace=wrap;html=1;rounded=0;fontSize=11;" parent="1" vertex="1">
                    <mxGeometry x="165" y="720" width="130" height="60" as="geometry"/>
                </mxCell>
                <mxCell id="72" value="[Duyệt lại]" style="edgeStyle=none;html=1;entryX=0.5;entryY=1;entryDx=0;entryDy=0;endArrow=classic;endFill=1;" parent="1" source="68" target="50" edge="1">
                    <mxGeometry x="-0.2" y="-35" relative="1" as="geometry">
                        <mxPoint as="offset"/>
                    </mxGeometry>
                </mxCell>
                <mxCell id="74" value="[Hủy]" style="edgeStyle=none;html=1;endArrow=classic;endFill=1;" parent="1" source="68" target="67" edge="1">
                    <mxGeometry x="-0.1667" y="-10" relative="1" as="geometry">
                        <mxPoint as="offset"/>
                    </mxGeometry>
                </mxCell>
                <mxCell id="68" value="" style="rhombus;whiteSpace=wrap;html=1;" parent="1" vertex="1">
                    <mxGeometry x="355" y="730" width="40" height="40" as="geometry"/>
                </mxCell>
                <mxCell id="85" value="" style="html=1;points=[];perimeter=orthogonalPerimeter;fillColor=#000000;strokeColor=none;rounded=1;rotation=90;" parent="1" vertex="1">
                    <mxGeometry x="227.5" y="400" width="5" height="180" as="geometry"/>
                </mxCell>
                <mxCell id="96" value="&lt;span&gt;Hỗ trợ trực tiếp nhân viên &lt;br&gt;và tài xế của chuyến&lt;br&gt;&amp;nbsp;công tác ưu tiên&lt;/span&gt;" style="text;html=1;align=center;verticalAlign=middle;resizable=0;points=[];autosize=1;strokeColor=none;fillColor=none;" parent="1" vertex="1">
                    <mxGeometry x="165" y="860" width="150" height="50" as="geometry"/>
                </mxCell>
                <mxCell id="100" value="" style="ellipse;html=1;shape=startState;fillColor=#000000;strokeColor=#ff0000;dashed=1;" parent="1" vertex="1">
                    <mxGeometry x="215" y="140" width="30" height="30" as="geometry"/>
                </mxCell>
                <mxCell id="101" value="" style="edgeStyle=orthogonalEdgeStyle;html=1;verticalAlign=bottom;endArrow=open;endSize=8;strokeColor=#ff0000;entryX=0.5;entryY=0;entryDx=0;entryDy=0;" parent="1" source="100" target="11" edge="1">
                    <mxGeometry relative="1" as="geometry">
                        <mxPoint x="230" y="220" as="targetPoint"/>
                    </mxGeometry>
                </mxCell>
                <mxCell id="102" value="" style="ellipse;html=1;shape=endState;fillColor=#000000;strokeColor=#ff0000;dashed=1;" parent="1" vertex="1">
                    <mxGeometry x="70" y="735" width="30" height="30" as="geometry"/>
                </mxCell>
                <mxCell id="105" value="" style="edgeStyle=orthogonalEdgeStyle;html=1;verticalAlign=bottom;endArrow=open;endSize=8;strokeColor=#ff0000;exitX=0;exitY=0.5;exitDx=0;exitDy=0;" parent="1" source="67" target="102" edge="1">
                    <mxGeometry relative="1" as="geometry">
                        <mxPoint x="120" y="850" as="targetPoint"/>
                        <mxPoint x="120" y="770" as="sourcePoint"/>
                    </mxGeometry>
                </mxCell>
                <mxCell id="106" value="" style="edgeStyle=orthogonalEdgeStyle;html=1;verticalAlign=bottom;endArrow=open;endSize=8;strokeColor=#ff0000;" parent="1" source="140" target="138" edge="1">
                    <mxGeometry relative="1" as="geometry">
                        <mxPoint x="255" y="835" as="targetPoint"/>
                        <mxPoint x="685.0000000000001" y="1190" as="sourcePoint"/>
                    </mxGeometry>
                </mxCell>
                <mxCell id="135" style="edgeStyle=none;html=1;" parent="1" source="128" target="129" edge="1">
                    <mxGeometry relative="1" as="geometry"/>
                </mxCell>
                <mxCell id="128" value="Cập nhật record công tác và hỗ trợ chuyến công tác" style="whiteSpace=wrap;html=1;rounded=0;fontSize=11;" parent="1" vertex="1">
                    <mxGeometry x="460" y="530" width="130" height="60" as="geometry"/>
                </mxCell>
                <mxCell id="136" style="edgeStyle=none;html=1;" parent="1" source="129" target="133" edge="1">
                    <mxGeometry relative="1" as="geometry"/>
                </mxCell>
                <mxCell id="129" value="Trưởng đội xe phân việc (tài xế/ xe) và cập nhật record công tác" style="whiteSpace=wrap;html=1;rounded=0;fontSize=11;" parent="1" vertex="1">
                    <mxGeometry x="710" y="530" width="130" height="60" as="geometry"/>
                </mxCell>
                <mxCell id="130" style="edgeStyle=none;html=1;endArrow=classic;endFill=1;" parent="1" source="133" target="68" edge="1">
                    <mxGeometry relative="1" as="geometry">
                        <Array as="points">
                            <mxPoint x="520" y="670"/>
                            <mxPoint x="520" y="750"/>
                        </Array>
                    </mxGeometry>
                </mxCell>
                <mxCell id="131" value="[Phân việc thất bại]" style="edgeLabel;html=1;align=center;verticalAlign=middle;resizable=0;points=[];" parent="130" vertex="1" connectable="0">
                    <mxGeometry x="-0.7279" y="-1" relative="1" as="geometry">
                        <mxPoint x="-15" y="-9" as="offset"/>
                    </mxGeometry>
                </mxCell>
                <mxCell id="132" value="[Phân việc thành công]" style="edgeStyle=none;html=1;endArrow=classic;endFill=1;" parent="1" source="133" target="137" edge="1">
                    <mxGeometry x="-0.8125" relative="1" as="geometry">
                        <Array as="points">
                            <mxPoint x="775" y="840"/>
                        </Array>
                        <mxPoint as="offset"/>
                        <mxPoint x="600" y="710" as="targetPoint"/>
                    </mxGeometry>
                </mxCell>
                <mxCell id="133" value="" style="rhombus;whiteSpace=wrap;html=1;" parent="1" vertex="1">
                    <mxGeometry x="755" y="650" width="40" height="40" as="geometry"/>
                </mxCell>
                <mxCell id="141" style="edgeStyle=none;html=1;" parent="1" source="137" target="140" edge="1">
                    <mxGeometry relative="1" as="geometry"/>
                </mxCell>
                <mxCell id="137" value="&lt;span style=&quot;font-family: &amp;#34;helvetica&amp;#34;&quot;&gt;Tạo thành công record công tác trên database (đã duyệt)&lt;/span&gt;" style="whiteSpace=wrap;html=1;fontSize=11;fontColor=default;rounded=0;" parent="1" vertex="1">
                    <mxGeometry x="520" y="810" width="120" height="60" as="geometry"/>
                </mxCell>
                <mxCell id="138" value="" style="ellipse;html=1;shape=endState;fillColor=#000000;strokeColor=#ff0000;dashed=1;" parent="1" vertex="1">
                    <mxGeometry x="225" y="825" width="30" height="30" as="geometry"/>
                </mxCell>
                <mxCell id="140" value="&lt;span style=&quot;font-family: &amp;#34;helvetica&amp;#34;&quot;&gt;Gửi mail đến các nhân viên, tài xế về chuyến công tác ưu tiên&lt;/span&gt;" style="whiteSpace=wrap;html=1;fontSize=11;fontColor=default;rounded=0;" parent="1" vertex="1">
                    <mxGeometry x="340" y="810" width="120" height="60" as="geometry"/>
                </mxCell>
            </root>
        </mxGraphModel>
    </diagram>
</mxfile>